<svg width="3853" height="1121" viewBox="0 0 3853 1121" fill="none" xmlns="http://www.w3.org/2000/svg">
<g clip-path="url(#clip0_5_193)">
<path fill-rule="evenodd" clip-rule="evenodd" d="M3384.85 374.819C3169.15 548.765 3139.27 764.638 3328.91 880.334C3524.01 1010.27 3804.69 970.925 3947.46 765.958C4086.57 546.154 4096.4 278.039 3974.4 184.893C3854.33 96.7671 3593.92 188.875 3384.85 374.819V374.819Z" fill="url(#paint0_linear_5_193)"/>
<path fill-rule="evenodd" clip-rule="evenodd" d="M553.132 564.448C380.503 373.86 122.349 381.99 -25.3375 585.179C-173.023 788.366 -100.985 1036.29 133.695 1141.51C366.313 1249.57 624.466 1241.44 712.165 1120.78C799.865 1000.12 727.827 752.195 553.132 564.448Z" fill="url(#paint1_linear_5_193)"/>
<path fill-rule="evenodd" clip-rule="evenodd" d="M3868.1 92.8508C3825.72 -7.35378 3719.87 -45.6435 3631.66 7.33241C3543.46 60.3075 3527.58 171.711 3596.2 256.156C3664.82 340.603 3770.68 378.89 3832.64 341.675C3894.6 304.459 3910.48 193.058 3868.1 92.8508Z" fill="url(#paint2_linear_5_193)" fill-opacity="0.64"/>
<path fill-rule="evenodd" clip-rule="evenodd" d="M3916.89 1174.82C4087.02 1102.08 4141.96 924.645 4038.28 776.643C3934.61 628.639 3749.02 619.555 3622.45 754.48C3494.43 887.336 3439.49 1064.77 3501.06 1152.65C3562.62 1240.54 3748.21 1249.62 3916.89 1174.82V1174.82Z" fill="url(#paint3_linear_5_193)"/>
<path fill-rule="evenodd" clip-rule="evenodd" d="M3231.39 865.499C3243.84 869.375 3255.54 875.62 3265.76 883.732C3276 891.869 3284.66 901.815 3291.32 913.075C3297.94 924.301 3302.52 936.75 3304.57 949.638C3306.65 962.561 3306.37 975.753 3303.75 988.577C3301.12 1001.37 3296.01 1013.63 3288.88 1024.6C3281.72 1035.6 3272.61 1045.2 3261.99 1052.91C3251.38 1060.61 3239.36 1066.38 3226.67 1069.7C3213.98 1073.04 3200.66 1073.99 3187.6 1072.61C3174.52 1071.26 3161.75 1067.34 3150.08 1061.3C3138.38 1055.24 3127.89 1047.07 3119.14 1037.22C3110.42 1027.39 3103.5 1015.96 3098.92 1003.64C3094.34 991.317 3092.12 978.15 3092.28 964.993C3092.42 951.801 3095.03 938.752 3099.98 926.523C3104.93 914.28 3112.1 903.054 3121.12 893.41C3130.16 883.745 3140.89 875.824 3152.79 870.042C3164.72 864.292 3177.61 860.794 3190.8 859.727C3193.69 859.455 3195.86 859.259 3197.31 858.968C3198.76 858.673 3199.49 858.313 3199.49 857.969C3199.49 857.625 3198.75 857.302 3197.27 857.079C3195.78 856.849 3193.55 856.699 3190.58 856.961C3177.07 857.977 3163.86 861.443 3151.59 867.189C3139.29 872.998 3128.15 880.989 3118.7 890.773C3109.21 900.602 3101.58 912.084 3096.22 924.652C3093.53 930.952 3091.43 937.486 3089.93 944.171C3088.47 950.883 3087.61 957.715 3087.39 964.582C3086.91 978.324 3088.92 992.213 3093.46 1005.31C3098.06 1018.48 3105.05 1030.69 3114.08 1041.33C3123.17 1052.05 3134.16 1061.01 3146.5 1067.75C3158.85 1074.49 3172.52 1078.98 3186.59 1080.74C3200.65 1082.51 3215.08 1081.76 3228.94 1078.38C3242.81 1075.01 3256.03 1068.93 3267.73 1060.69C3279.49 1052.41 3289.61 1042.03 3297.58 1030.06C3305.54 1018.11 3311.28 1004.65 3314.3 990.575C3317.29 976.462 3317.67 961.92 3315.4 947.672C3313.17 933.443 3308.13 919.67 3300.78 907.306C3293.42 894.918 3283.83 884.006 3272.48 875.126C3261.18 866.284 3248.25 859.555 3234.55 855.484C3223.38 852.226 3214.43 851.882 3208.53 852.441C3205.56 852.68 3203.33 853.239 3201.83 853.814C3200.33 854.388 3199.56 855.011 3199.49 855.646C3199.43 856.282 3200.08 856.931 3201.41 857.554C3202.73 858.2 3204.75 858.706 3207.43 859.429C3212.79 860.752 3220.84 862.295 3231.39 865.499" fill="url(#paint4_linear_5_193)" fill-opacity="0.48"/>
<path fill-rule="evenodd" clip-rule="evenodd" d="M292.756 366.256C280.202 369.786 266.988 370.916 254.001 369.673C240.978 368.425 228.294 364.801 216.578 358.981C204.908 353.168 194.281 345.225 185.538 335.532C176.752 325.827 169.797 314.611 165.011 302.427C160.25 290.267 157.853 277.199 157.853 264.125C157.861 251 160.276 237.988 164.981 225.734C169.68 213.509 176.616 202.124 185.451 192.426C194.276 182.721 204.927 174.669 216.638 168.715C228.341 162.734 241.189 159.06 254.261 157.774C267.38 156.492 280.622 157.63 293.329 161.132C306.003 164.622 318.037 170.444 328.589 178.284C339.141 186.125 348.182 195.957 355.21 207.082C362.287 218.218 367.208 230.584 369.719 243.536C372.237 256.499 372.341 269.816 370.026 282.818C367.717 295.841 363.03 308.328 356.2 319.655C349.331 330.971 340.428 340.92 329.94 349.001C327.669 350.801 325.957 352.147 324.898 353.178C323.844 354.215 323.428 354.917 323.614 355.204C323.802 355.493 324.595 355.365 325.962 354.743C327.332 354.125 329.292 353.033 331.634 351.2C342.41 342.994 351.602 332.895 358.76 321.398C365.91 309.829 370.902 297.06 373.494 283.711C376.104 270.297 376.239 256.519 373.894 243.057C372.716 236.31 370.919 229.685 368.527 223.267C366.101 216.838 363.093 210.644 359.541 204.761C352.452 192.979 343.198 182.425 332.252 173.909C321.222 165.364 308.708 158.928 295.34 154.923C281.872 150.884 267.774 149.359 253.753 150.424C239.719 151.493 225.807 155.163 213.05 161.355C200.293 167.522 188.602 176.002 178.82 186.389C169.029 196.764 161.25 209.056 155.922 222.338C150.575 235.682 147.747 249.901 147.582 264.275C147.418 278.627 149.941 293.045 155.078 306.492C160.256 319.959 167.864 332.361 177.525 343.079C187.153 353.791 198.885 362.6 211.784 368.971C224.703 375.355 238.697 379.282 253.053 380.552C267.345 381.815 281.86 380.417 295.569 376.374C306.707 373.026 314.403 368.441 319.048 364.759C321.404 362.947 322.971 361.261 323.917 359.963C324.864 358.665 325.171 357.723 324.875 357.154C324.581 356.587 323.687 356.393 322.234 356.594C320.768 356.776 318.801 357.449 316.159 358.302C310.943 360.113 303.352 363.2 292.756 366.256" fill="url(#paint5_linear_5_193)" fill-opacity="0.48"/>
<path fill-rule="evenodd" clip-rule="evenodd" d="M219.648 643.354C304.859 586.07 283.779 458.486 172.563 358.389C61.349 258.293 -67.7924 250.673 -115.881 341.369C-163.97 432.066 -142.888 559.649 -68.7962 626.334C5.29718 693.02 134.436 700.64 219.648 643.354Z" fill="url(#paint6_linear_5_193)" fill-opacity="0.64"/>
<path fill-rule="evenodd" clip-rule="evenodd" d="M3262.11 460.453C3444.78 669.34 3723.47 665.433 3886.64 448.989C4049.81 232.546 3976.75 -36.3121 3725.52 -154.26C3476.57 -275.23 3197.89 -271.326 3100.99 -142.795C3004.1 -14.2665 3077.16 254.592 3262.11 460.453Z" fill="url(#paint7_linear_5_193)"/>
</g>
<defs>
<linearGradient id="paint0_linear_5_193" x1="4090.53" y1="411.814" x2="3214.72" y2="748.147" gradientUnits="userSpaceOnUse">
<stop stop-color="#675DEE"/>
<stop offset="1" stop-color="#467FFF" stop-opacity="0"/>
</linearGradient>
<linearGradient id="paint1_linear_5_193" x1="533.974" y1="506.829" x2="297.37" y2="965.512" gradientUnits="userSpaceOnUse">
<stop stop-color="#467FFF" stop-opacity="0.32"/>
<stop offset="1" stop-color="#467FFF" stop-opacity="0"/>
</linearGradient>
<linearGradient id="paint2_linear_5_193" x1="3832.64" y1="341.675" x2="3631.79" y2="7.25791" gradientUnits="userSpaceOnUse">
<stop stop-color="#73F5D3"/>
<stop offset="1" stop-color="#29D2D3" stop-opacity="0"/>
</linearGradient>
<linearGradient id="paint3_linear_5_193" x1="3921.08" y1="1180.79" x2="3618.43" y2="748.387" gradientUnits="userSpaceOnUse">
<stop stop-color="#73F5D3"/>
<stop offset="1" stop-color="#29D2D3" stop-opacity="0"/>
</linearGradient>
<linearGradient id="paint4_linear_5_193" x1="3202.09" y1="852.222" x2="3202.09" y2="1081.67" gradientUnits="userSpaceOnUse">
<stop stop-color="white"/>
<stop offset="1" stop-color="#467FFF" stop-opacity="0"/>
</linearGradient>
<linearGradient id="paint5_linear_5_193" x1="324.565" y1="361.439" x2="199.621" y2="168.963" gradientUnits="userSpaceOnUse">
<stop stop-color="white"/>
<stop offset="1" stop-color="#467FFF" stop-opacity="0"/>
</linearGradient>
<linearGradient id="paint6_linear_5_193" x1="-68.7961" y1="626.334" x2="172.452" y2="358.289" gradientUnits="userSpaceOnUse">
<stop stop-color="#29D2D3"/>
<stop offset="1" stop-color="#29D2D3" stop-opacity="0"/>
</linearGradient>
<linearGradient id="paint7_linear_5_193" x1="3100.99" y1="-142.795" x2="3571.6" y2="657.637" gradientUnits="userSpaceOnUse">
<stop stop-color="#135CFF"/>
<stop offset="1" stop-color="#467FFF" stop-opacity="0"/>
</linearGradient>
<clipPath id="clip0_5_193">
<rect width="3853" height="1121" fill="white"/>
</clipPath>
</defs>
</svg>
